<svg id="Layer_5" enable-background="new 0 0 64 64" height="512" viewBox="0 0 64 64" width="512" xmlns="http://www.w3.org/2000/svg"><g><g><g><path d="m38 42v2h-4-2v-20h6v16z" fill="#ff826e"/></g><g><path d="m58 18v20h-4-2v-20z" fill="#ff826e"/></g><g><path d="m48 28v10h-2-4v-10z" fill="#ff826e"/></g><g><path d="m42 50h2c.07 0 .14 0 .2.01 1.01.1 1.8.96 1.8 1.99v2c0 1.1-.9 2-2 2h-2-4-4-4-4-1.48c.94-1.68 1.48-3.62 1.48-5.69 0-.1 0-.21-.01-.31h4.01 4 4z" fill="#fcd770"/></g><g><path d="m50 50h-4l-1.8.01c-.06-.01-.13-.01-.2-.01 1.1 0 2-.9 2-2v-2c0-1.1-.9-2-2-2h2 4 4 4 2c1.1 0 2 .9 2 2v2c0 1.1-.9 2-2 2h-2-4z" fill="#fcd770"/></g><g><path d="m46 56h4 4 4 2c1.1 0 2 .9 2 2v2c0 1.1-.9 2-2 2h-16c1.1 0 2-.9 2-2v-2c0-1.1-.9-2-2-2z" fill="#fcd770"/></g><g><path d="m44 56c1.1 0 2 .9 2 2v2c0 1.1-.9 2-2 2h-20c-1.1 0-2-.9-2-2v-.89c1.01-.88 1.86-1.93 2.52-3.11h1.48 4 4 4 4z" fill="#ffc729"/></g><g><path d="m42 44h2c1.1 0 2 .9 2 2v2c0 1.1-.9 2-2 2h-2-4-4-4-4.01c-.04-1.58-.39-3.11-1.04-4.52-.23-.51-.5-1.01-.8-1.48h5.85 2 2 4 2z" fill="#ffc729"/></g><g><path d="m50 56h-4-2c1.1 0 2-.9 2-2v-2c0-1.03-.79-1.89-1.8-1.99l1.8-.01h4 4 4 2c1.1 0 2 .9 2 2v2c0 1.1-.9 2-2 2h-2-4z" fill="#ffc729"/></g><g><path d="m46 38h2 2 2 2 4 2c1.1 0 2 .9 2 2v2c0 1.1-.9 2-2 2h-2-4-4-4-2-2-2c-1.1 0-2-.9-2-2v-2c0-1.1.9-2 2-2h2z" fill="#ffc729"/></g><g><path d="m24 29c0 .65-.21 1.28-.6 1.8l-5.4 7.2h-8l-5.4-7.2c-.39-.52-.6-1.15-.6-1.8 0-.83.34-1.58.88-2.12s1.29-.88 2.12-.88c1.75 0 1.75 2 3.5 2s1.75-2 3.49-2c1.76 0 1.76 2 3.51 2 .88 0 1.31-.5 1.75-1s.87-1 1.75-1c.83 0 1.58.34 2.12.88s.88 1.29.88 2.12z" fill="#a0d468"/></g><g><path d="m25.99 50c.01.1.01.21.01.31 0 2.07-.54 4.01-1.48 5.69-.66 1.18-1.51 2.23-2.52 3.11-2.05 1.8-4.74 2.89-7.69 2.89h-.62c-3.23 0-6.15-1.31-8.26-3.43-2.12-2.11-3.43-5.03-3.43-8.26 0-3.38 1.46-6.58 3.99-8.8l4.01-3.51h8l4.01 3.51c.84.73 1.55 1.57 2.14 2.49.3.47.57.97.8 1.48.65 1.41 1 2.94 1.04 4.52z" fill="#b4dd7f"/></g></g><g><path d="m15 47c.552 0 1 .448 1 1h2c0-1.654-1.346-3-3-3v-2h-2v2h-3v3c0 1.654 1.346 3 3 3h2c.552 0 1 .448 1 1v1h-3c-.552 0-1-.448-1-1h-2c0 1.654 1.346 3 3 3v2h2v-2h3v-3c0-1.654-1.346-3-3-3h-2c-.552 0-1-.448-1-1v-1z"/><path d="m63 14v-13h-13v2h9.586l-17.586 17.586-7-7-11.981 11.981c-.595-.352-1.279-.567-2.019-.567-1.33 0-2.036.807-2.504 1.341-.436.498-.61.659-.999.659-.39 0-.563-.161-1-.659-.468-.534-1.174-1.341-2.503-1.341-1.328 0-2.034.808-2.502 1.342-.434.497-.608.658-.996.658s-.561-.161-.995-.658c-.467-.534-1.173-1.342-2.501-1.342-2.206 0-4 1.794-4 4 0 .859.284 1.711.8 2.4l4.844 6.458-3.309 2.895c-2.755 2.411-4.335 5.893-4.335 9.554 0 6.999 5.694 12.693 12.693 12.693h.613c2.531 0 4.885-.753 6.867-2.034.405 1.179 1.513 2.034 2.827 2.034h20 16c1.654 0 3-1.346 3-3v-2c0-.771-.301-1.468-.78-2 .48-.532.78-1.229.78-2v-2c0-.771-.301-1.468-.78-2 .48-.532.78-1.229.78-2v-2c0-.771-.301-1.468-.78-2 .48-.532.78-1.229.78-2v-2c0-1.654-1.346-3-3-3h-1v-20h-8v20h-2v-10h-8v10h-1c-.352 0-.686.072-1 .184v-14.184h-8v20h-6.329c-.576-.817-1.24-1.577-2.006-2.247l-3.309-2.895 4.845-6.458c.515-.689.799-1.541.799-2.4 0-.74-.215-1.424-.567-2.019l10.567-10.567 7 7 19-19v9.586zm-39 47c-.552 0-1-.448-1-1v-.469c.762-.718 1.434-1.527 2-2.413v1.882h2v-2h2v2h2v-2h2v2h2v-2h2v2h2v-2h2v2h2v-2h1c.552 0 1 .448 1 1v2c0 .552-.448 1-1 1zm2.965-10h2.035v2h2v-2h2v2h2v-2h2v2h2v-2h2v2h2v-2h1c.552 0 1 .448 1 1v2c0 .552-.448 1-1 1h-17.91c.499-1.249.798-2.594.875-4zm24.035-4v-2h2v2h2v-2h2v2h2v-2h1c.552 0 1 .448 1 1v2c0 .552-.448 1-1 1h-13.184c.112-.314.184-.648.184-1v-2c0-.352-.072-.686-.184-1h2.184v2zm10 5v2c0 .552-.448 1-1 1h-13.184c.112-.314.184-.648.184-1v-2c0-.352-.072-.686-.184-1h2.184v2h2v-2h2v2h2v-2h2v2h2v-2h1c.552 0 1 .448 1 1zm0 8c0 .552-.448 1-1 1h-13.184c.112-.314.184-.648.184-1v-2c0-.352-.072-.686-.184-1h2.184v2h2v-2h2v2h2v-2h2v2h2v-2h1c.552 0 1 .448 1 1zm-8-41h4v18h-4zm-10 10h4v8h-4zm-3 10h1v2h2v-2h2v2h2v-2h2v2h2v-2h2v2h2v-2h2v2h2v-2h1c.552 0 1 .448 1 1v2c0 .552-.448 1-1 1h-14-2-4c-.552 0-1-.448-1-1v-2c0-.552.448-1 1-1zm-7-14h4v15 2 1h-4zm-4 20v2h2v-2h2v2h2v-2h2v2h2v-2h1 1v2h2v-2h1c.552 0 1 .448 1 1v2c0 .552-.448 1-1 1h-17.07c-.144-1.393-.517-2.743-1.096-4zm-4 5.307c0 5.896-4.797 10.693-10.693 10.693h-.613c-5.897 0-10.694-4.797-10.694-10.693 0-3.083 1.331-6.017 3.651-8.048l3.725-3.259h7.248l3.725 3.259c2.32 2.031 3.651 4.965 3.651 8.048zm-2.399-20.107-5.101 6.8h-7l-5.1-6.8c-.258-.344-.4-.77-.4-1.2 0-1.103.897-2 2-2 .388 0 .561.161.995.658.467.534 1.173 1.342 2.501 1.342s2.034-.808 2.502-1.342c.435-.497.608-.658.996-.658.389 0 .563.161.999.659.468.534 1.174 1.341 2.504 1.341 1.329 0 2.035-.807 2.503-1.341.437-.498.61-.659 1-.659 1.103 0 2 .897 2 2 0 .43-.142.856-.399 1.2z"/></g></g></svg>