<svg height="512pt" viewBox="0 0 512.00039 512" width="512pt" xmlns="http://www.w3.org/2000/svg"><path d="m25.371094 512h399.253906c14.011719 0 25.371094-11.359375 25.371094-25.371094v-433.835937c0-14.011719-11.359375-25.371094-25.371094-25.371094h-399.253906c-14.011719 0-25.371094 11.359375-25.371094 25.371094v433.835937c0 14.011719 11.359375 25.371094 25.371094 25.371094zm0 0" fill="#ffefe4"/><path d="m424.628906 27.421875h-399.257812c-14.011719 0-25.371094 11.359375-25.371094 25.371094v10.625c0-14.015625 11.359375-25.375 25.371094-25.375h399.257812c14.011719 0 25.371094 11.359375 25.371094 25.375v-10.625c0-14.011719-11.359375-25.371094-25.371094-25.371094zm0 0" fill="#fff7f2"/><path d="m424.628906 490.757812h-399.257812c-14.011719 0-25.371094-11.363281-25.371094-25.375v21.242188c0 14.015625 11.359375 25.375 25.371094 25.375h399.257812c14.011719 0 25.371094-11.359375 25.371094-25.371094v-21.246094c0 14.011719-11.359375 25.375-25.371094 25.375zm0 0" fill="#edd4c2"/><path d="m359.8125 340.449219h-200.703125c-5.800781 0-10.496094-4.699219-10.496094-10.496094s4.699219-10.496094 10.496094-10.496094h200.703125c5.796875 0 10.496094 4.699219 10.496094 10.496094s-4.699219 10.496094-10.496094 10.496094zm0 0" fill="#6770e6"/><path d="m359.8125 425.050781h-200.703125c-5.800781 0-10.496094-4.699219-10.496094-10.496093 0-5.796876 4.699219-10.496094 10.496094-10.496094h200.703125c5.796875 0 10.496094 4.699218 10.496094 10.496094 0 5.796874-4.699219 10.496093-10.496094 10.496093zm0 0" fill="#6770e6"/><path d="m66.855469 52.898438c0 6.335937-5.136719 11.476562-11.476563 11.476562-6.335937 0-11.476562-5.140625-11.476562-11.476562 0-6.339844 5.140625-11.476563 11.476562-11.476563 6.339844 0 11.476563 5.136719 11.476563 11.476563zm0 0" fill="#edd4c2"/><path d="m55.378906 56.085938c-3.800781 0-6.882812-3.082032-6.882812-6.882813v-42.320313c0-3.800781 3.082031-6.882812 6.882812-6.882812 3.800782 0 6.882813 3.082031 6.882813 6.882812v42.320313c0 3.800781-3.078125 6.882813-6.882813 6.882813zm0 0" fill="#6770e6"/><path d="m55.378906 0c-3.800781 0-6.882812 3.082031-6.882812 6.882812v10.621094c0-3.800781 3.082031-6.882812 6.882812-6.882812 3.800782 0 6.882813 3.082031 6.882813 6.882812v-10.621094c0-3.800781-3.078125-6.882812-6.882813-6.882812zm0 0" fill="#8f95e6"/><path d="m151.664062 52.898438c0 6.335937-5.136718 11.476562-11.472656 11.476562-6.339844 0-11.476562-5.140625-11.476562-11.476562 0-6.339844 5.136718-11.476563 11.476562-11.476563 6.335938 0 11.472656 5.136719 11.472656 11.476563zm0 0" fill="#edd4c2"/><path d="m140.191406 56.085938c-3.800781 0-6.882812-3.082032-6.882812-6.882813v-42.320313c0-3.800781 3.082031-6.882812 6.882812-6.882812 3.796875 0 6.878906 3.082031 6.878906 6.882812v42.320313c0 3.800781-3.078124 6.882813-6.878906 6.882813zm0 0" fill="#6770e6"/><path d="m140.191406 0c-3.800781 0-6.882812 3.082031-6.882812 6.882812v10.621094c0-3.800781 3.078125-6.882812 6.882812-6.882812 3.796875 0 6.878906 3.082031 6.878906 6.882812v-10.621094c0-3.800781-3.082031-6.882812-6.878906-6.882812zm0 0" fill="#8f95e6"/><path d="m321.285156 52.898438c0 6.335937-5.136718 11.476562-11.476562 11.476562-6.335938 0-11.472656-5.140625-11.472656-11.476562 0-6.339844 5.136718-11.476563 11.472656-11.476563 6.339844 0 11.476562 5.136719 11.476562 11.476563zm0 0" fill="#edd4c2"/><path d="m309.808594 56.085938c-3.796875 0-6.878906-3.082032-6.878906-6.882813v-42.320313c0-3.800781 3.082031-6.882812 6.878906-6.882812 3.800781 0 6.882812 3.082031 6.882812 6.882812v42.320313c0 3.800781-3.082031 6.882813-6.882812 6.882813zm0 0" fill="#6770e6"/><path d="m309.808594 0c-3.796875 0-6.878906 3.082031-6.878906 6.882812v10.621094c0-3.800781 3.078124-6.882812 6.878906-6.882812 3.800781 0 6.882812 3.082031 6.882812 6.882812v-10.621094c0-3.800781-3.082031-6.882812-6.882812-6.882812zm0 0" fill="#8f95e6"/><path d="m236.476562 52.898438c0 6.335937-5.136718 11.476562-11.476562 11.476562s-11.476562-5.140625-11.476562-11.476562c0-6.339844 5.136718-11.476563 11.476562-11.476563s11.476562 5.136719 11.476562 11.476563zm0 0" fill="#edd4c2"/><path d="m225 56.085938c-3.800781 0-6.882812-3.082032-6.882812-6.882813v-42.320313c0-3.800781 3.082031-6.882812 6.882812-6.882812s6.882812 3.082031 6.882812 6.882812v42.320313c0 3.800781-3.082031 6.882813-6.882812 6.882813zm0 0" fill="#6770e6"/><path d="m225 0c-3.800781 0-6.882812 3.082031-6.882812 6.882812v10.621094c0-3.800781 3.082031-6.882812 6.882812-6.882812s6.882812 3.082031 6.882812 6.882812v-10.621094c0-3.800781-3.082031-6.882812-6.882812-6.882812zm0 0" fill="#8f95e6"/><path d="m406.097656 52.898438c0 6.335937-5.140625 11.476562-11.476562 11.476562-6.339844 0-11.476563-5.140625-11.476563-11.476562 0-6.339844 5.136719-11.476563 11.476563-11.476563 6.335937 0 11.476562 5.136719 11.476562 11.476563zm0 0" fill="#edd4c2"/><path d="m394.621094 56.085938c-3.800782 0-6.882813-3.082032-6.882813-6.882813v-42.320313c0-3.800781 3.082031-6.882812 6.882813-6.882812 3.800781 0 6.882812 3.082031 6.882812 6.882812v42.320313c0 3.800781-3.082031 6.882813-6.882812 6.882813zm0 0" fill="#6770e6"/><path d="m394.617188 0c-3.800782 0-6.882813 3.082031-6.882813 6.882812v10.621094c0-3.800781 3.082031-6.882812 6.882813-6.882812 3.800781 0 6.882812 3.082031 6.882812 6.882812v-10.621094c.003906-3.800781-3.078125-6.882812-6.882812-6.882812zm0 0" fill="#8f95e6"/><path d="m512 454.984375h-45.273438v-314.058594h45.273438zm0 0" fill="#ff8354"/><path d="m512 466.652344h-45.273438v-11.664063h45.273438zm0 0" fill="#ffefe4"/><path d="m466.726562 466.648438h45.273438v22.714843c0 12.503907-10.132812 22.636719-22.636719 22.636719-12.5 0-22.636719-10.132812-22.636719-22.636719zm0 0" fill="#6770e6"/><path d="m489.363281 492c-12.5 0-22.636719-10.132812-22.636719-22.636719v20c0 12.503907 10.136719 22.636719 22.636719 22.636719 12.503907 0 22.636719-10.132812 22.636719-22.636719v-20c0 12.503907-10.132812 22.636719-22.636719 22.636719zm0 0" fill="#5861c7"/><path d="m466.726562 140.90625 20.964844-58.492188c.5625-1.570312 2.78125-1.570312 3.34375 0l20.964844 58.492188zm0 0" fill="#edd4c2"/><path d="m478.042969 109.328125h22.636719l-9.644532-26.914063c-.5625-1.570312-2.785156-1.570312-3.347656 0zm0 0" fill="#5861c7"/><path d="m478.042969 109.328125h22.636719l-9.644532-26.914063c-.5625-1.570312-2.785156-1.570312-3.347656 0zm0 0" fill="#5861c7"/><path d="m486.882812 92.414062c.835938-1.570312 4.125-1.570312 4.957032 0l8.558594 16.121094-9.363282-26.121094c-.5625-1.570312-2.78125-1.570312-3.34375 0l-9.359375 26.113282zm0 0" fill="#8f95e6"/><path d="m259.707031 140.90625s16.9375-22.621094 13.140625-32.371094c-3.367187-8.640625-16.832031-6.507812-23.566406 0-6.734375 6.507813-3.953125-13.253906-24.28125-13.253906s-17.546875 19.761719-24.28125 13.253906c-6.734375-6.507812-20.199219-8.640625-23.566406 0-3.796875 9.75 13.140625 32.371094 13.140625 32.371094s-38.628907 40.546875-38.628907 78.785156c0 23.363282 10.890626 50.019532 73.335938 50.019532s73.335938-26.65625 73.335938-50.019532c0-38.238281-38.628907-78.785156-38.628907-78.785156zm0 0" fill="#6770e6"/><path d="m265.316406 146.90625h-80.632812c-3.3125 0-6-2.6875-6-6s2.6875-6 6-6h80.632812c3.3125 0 6 2.6875 6 6s-2.6875 6-6 6zm0 0" fill="#69ebfc"/><path d="m221.953125 233.445312c-3.824219-.5625-7.222656-2.039062-10.210937-4.4375-1.738282-1.398437-3.1875-3.148437-4.34375-5.257812-1.402344-2.558594-.304688-5.773438 2.394531-6.878906 2.148437-.875 4.664062-.132813 5.863281 1.855468.386719.636719.828125 1.25 1.328125 1.828126 1.375 1.609374 3.03125 2.71875 4.96875 3.328124v-14.527343l-.683594-.308594c-1.886719-.710937-3.660156-1.550781-5.316406-2.523437-1.65625-.96875-3.109375-2.089844-4.355469-3.363282-1.253906-1.273437-2.25-2.714844-2.984375-4.320312-.742187-1.609375-1.117187-3.402344-1.117187-5.394532 0-1.832031.335937-3.566406.996094-5.199218.667968-1.628906 1.617187-3.082032 2.871093-4.359375 1.25-1.273438 2.761719-2.332031 4.550781-3.171875 1.78125-.84375 3.792969-1.386719 6.035157-1.644532v-3.171874c0-1.878907 1.523437-3.402344 3.40625-3.402344 1.878906 0 3.402343 1.523437 3.402343 3.402344v3.328124c2.042969.304688 3.816407.839844 5.316407 1.609376 1.503906.761718 2.792969 1.652343 3.902343 2.636718.425782.378906.839844.828125 1.230469 1.316406 1.929688 2.417969.949219 6.03125-1.878906 7.292969-1.933594.863281-4.164063.320313-5.589844-1.246093-.75-.824219-1.730469-1.632813-2.980469-2.203126v13.6875c2.199219.917969 4.179688 1.863282 5.96875 2.832032 1.78125.96875 3.308594 2.0625 4.585938 3.289062 1.277344 1.222656 2.242188 2.613282 2.902344 4.164063.667968 1.558593.996094 3.355469.996094 5.394531 0 2.292969-.394532 4.335938-1.179688 6.113281-.796875 1.785157-1.847656 3.316407-3.179688 4.589844-1.328124 1.273437-2.867187 2.296875-4.625 3.0625-1.757812.761719-3.585937 1.296875-5.46875 1.601563v3.328124c0 1.878907-1.523437 3.402344-3.402343 3.402344-1.882813 0-3.40625-1.523437-3.40625-3.402344v-3.25zm-5.042969-39.996093c0 1.222656.394532 2.28125 1.183594 3.171875.792969.894531 2.078125 1.800781 3.859375 2.71875v-11.164063c-1.53125.40625-2.746094 1.066407-3.667969 1.984375-.921875.921875-1.375 2.015625-1.375 3.289063zm16.519532 24.625c0-1.324219-.359376-2.425781-1.078126-3.289063-.710937-.867187-1.90625-1.734375-3.589843-2.601562v11.699218c1.378906-.453124 2.5-1.183593 3.367187-2.175781.859375-.996093 1.300782-2.207031 1.300782-3.632812zm0 0" fill="#ffefe4"/><g fill="#6770e6"><path d="m100.394531 329.949219c0 5.796875-4.699219 10.496093-10.496093 10.496093-5.796876 0-10.496094-4.699218-10.496094-10.496093s4.699218-10.496094 10.496094-10.496094c5.796874 0 10.496093 4.699219 10.496093 10.496094zm0 0"/><path d="m100.394531 414.554688c0 5.796874-4.699219 10.496093-10.496093 10.496093-5.796876 0-10.496094-4.699219-10.496094-10.496093 0-5.796876 4.699218-10.496094 10.496094-10.496094 5.796874 0 10.496093 4.699218 10.496093 10.496094zm0 0"/></g></svg>