<svg height="458pt" viewBox="-27 0 458 458.21596" width="458pt" xmlns="http://www.w3.org/2000/svg"><path d="m315.308594 233.699219c59.03125 12.597656 97.875 69.195312 88.410156 128.808593-9.464844 59.613282-63.929688 101.394532-123.960938 95.085938-60.03125-6.304688-104.625-58.488281-101.496093-118.769531 3.128906-60.277344 52.886719-107.566407 113.246093-107.625 8 .007812 15.972657.847656 23.800782 2.5zm0 0" fill="#00acea"/><path d="m315.308594 99.601562v134.097657c-7.828125-1.648438-15.800782-2.484375-23.800782-2.5-41.007812.007812-78.820312 22.152343-98.890624 57.917969-20.070313 35.761718-19.269532 79.574218 2.089843 114.582031l-.097656.101562h-160.5c-9.019531.007813-17.671875-3.574219-24.050781-9.949219-6.378906-6.378906-9.957032-15.03125-9.949219-24.050781v-335.800781c-.007813-9.019531 3.570313-17.671875 9.949219-24.050781 6.378906-6.378907 15.03125-9.9570315 24.050781-9.949219h175.398437l.699219.699219v64.902343c-.007812 9.019532 3.574219 17.671876 9.949219 24.046876 6.378906 6.378906 15.03125 9.960937 24.050781 9.953124zm0 0" fill="#00efd1"/><path d="m315.308594 98.300781v1.199219h-71.101563c-9.019531.007812-17.671875-3.570312-24.050781-9.949219-6.375-6.378906-9.957031-15.03125-9.949219-24.050781v-64.800781zm0 0" fill="#00acea"/><path d="m344.109375 332.898438h-40.800781v-40.796876c0-5.523437-4.476563-10-10-10-5.523438 0-10 4.476563-10 10v40.796876h-40.800782c-5.523437 0-10 4.480468-10 10 0 5.523437 4.476563 10 10 10h40.800782v46.402343c0 5.523438 4.476562 10 10 10 5.523437 0 10-4.476562 10-10v-46.402343h40.800781c5.519531 0 10-4.476563 10-10 0-5.519532-4.480469-10-10-10zm0 0" fill="#fedb41"/></svg>