<svg height="512" viewBox="0 0 64 64" width="512" xmlns="http://www.w3.org/2000/svg"><g id="Bill-Credit_Card-2" data-name="Bill-Credit Card"><rect fill="#00ccb3" height="30" rx="1" width="20" x="37" y="26"/><path d="m39 21v14l-2 4v21a1 1 0 0 1 -1 1h-26a1 1 0 0 1 -1-1v-21l-2-4v-14z" fill="#ff9811"/><path d="m41 26v9l-2 4v17h-1a1 1 0 0 1 -1-1v-16l2-4v-9z" fill="#00b39d"/><path d="m52.31 48.5a1.976 1.976 0 0 1 .69 1.5 2 2 0 0 1 -4 0 1.976 1.976 0 0 1 .69-1.5 1.966 1.966 0 0 0 2.62 0z" fill="#ff5023"/><path d="m52.31 48.5a2 2 0 0 1 -3.31-1.5 2 2 0 0 1 4 0 1.976 1.976 0 0 1 -.69 1.5z" fill="#ff9811"/><path d="m49 30h4v6h-4z" fill="#ff9811"/><path d="m11 15v6h-4v-5a1 1 0 0 1 1-1z" fill="#ee8700"/><path d="m39 16v5h-4v-6h3a1 1 0 0 1 1 1z" fill="#ee8700"/><path d="m20 51h6v6h-6z" fill="#78b9eb"/><path d="m26 45h6v6h-6z" fill="#78b9eb"/><path d="m14 45h6v6h-6z" fill="#78b9eb"/><path d="m20 39h6v6h-6z" fill="#78b9eb"/><g fill="#3d9ae2"><path d="m26 51h6v6h-6z"/><path d="m14 51h6v6h-6z"/><path d="m20 45h6v6h-6z"/><path d="m26 39h6v6h-6z"/><path d="m14 39h6v6h-6z"/></g><path d="m11 25h24v10h-24z" fill="#ffde55"/><path d="m35 4v17h-24v-17a1 1 0 0 1 1-1h22a1 1 0 0 1 1 1z" fill="#e6e7e8"/><path d="m35 6.26v14.74h-13.36a109.35 109.35 0 0 0 13.36-14.74z" fill="#d8d7da"/><path d="m32 38h-18a1 1 0 0 0 -1 1v18a1 1 0 0 0 1 1h18a1 1 0 0 0 1-1v-18a1 1 0 0 0 -1-1zm-1 6h-4v-4h4zm-10 6v-4h4v4zm4 2v4h-4v-4zm-6-2h-4v-4h4zm2-6v-4h4v4zm6 2h4v4h-4zm-8-6v4h-4v-4zm-4 12h4v4h-4zm12 4v-4h4v4z"/><path d="m36 25a1 1 0 0 0 -1-1h-24a1 1 0 0 0 -1 1v10a1 1 0 0 0 1 1h24a1 1 0 0 0 1-1zm-2 9h-22v-8h22z"/><path d="m56 25h-16v-9a2 2 0 0 0 -2-2h-2v-10a2 2 0 0 0 -2-2h-22a2 2 0 0 0 -2 2v10h-2a2 2 0 0 0 -2 2v19a1 1 0 0 0 .105.447l1.895 3.789v20.764a2 2 0 0 0 2 2h26a2 2 0 0 0 2-2v-3h18a2 2 0 0 0 2-2v-28a2 2 0 0 0 -2-2zm-18-9v4h-2v-4zm-24-12v2h2v-2h2v2h2v-2h2v2h2v-2h2v2h2v-2h2v2h2v-2h2v16h-22v-16zm-4 12v4h-2v-4zm26 44h-26v-21a1 1 0 0 0 -.105-.447l-1.895-3.789v-12.764h30v12.764l-1.9 3.789a1 1 0 0 0 -.1.447zm20-5h-18v-15.764l1.9-3.789a1 1 0 0 0 .1-.447v-8h16z"/><path d="m51 53a3 3 0 0 0 3-3 2.956 2.956 0 0 0 -.421-1.493 2.965 2.965 0 0 0 .421-1.507 3 3 0 0 0 -6 0 2.965 2.965 0 0 0 .421 1.507 2.956 2.956 0 0 0 -.421 1.493 3 3 0 0 0 3 3zm0-2a1 1 0 0 1 -1-1 .956.956 0 0 1 .038-.173 2.761 2.761 0 0 0 1.924 0 .956.956 0 0 1 .038.173 1 1 0 0 1 -1 1zm0-5a1 1 0 1 1 -1 1 1 1 0 0 1 1-1z"/><path d="m49 37h4a1 1 0 0 0 1-1v-6a1 1 0 0 0 -1-1h-4a1 1 0 0 0 -1 1v6a1 1 0 0 0 1 1zm1-6h2v4h-2z"/><path d="m40 43h2v2h-2z"/><path d="m40 47h2v2h-2z"/><path d="m40 51h2v2h-2z"/><path d="m44 43h2v10h-2z"/><path d="m30 29h2v2h-2z"/><path d="m26 29h2v2h-2z"/><path d="m22 29h2v2h-2z"/><path d="m18 29h2v2h-2z"/><path d="m14 8h12v2h-12z"/><path d="m28 8h4v2h-4z"/><path d="m14 12h12v2h-12z"/><path d="m28 12h4v2h-4z"/><path d="m14 16h12v2h-12z"/><path d="m28 16h4v2h-4z"/></g></svg>