<svg id="Capa_1" enable-background="new 0 0 512 512" height="512" viewBox="0 0 512 512" width="512" xmlns="http://www.w3.org/2000/svg"><g><g><path d="m408.878 504.5h-388.437c-7.147 0-12.941-5.794-12.941-12.941v-402.91c0-7.147 5.794-12.941 12.941-12.941h148.346l52.246 8.628 53.972-8.628h133.873c7.147 0 12.941 5.794 12.941 12.941v402.909c0 7.148-5.794 12.942-12.941 12.942z" fill="#eaae8e"/><path d="m423.351 75.708h-25.883c7.147 0 12.941 5.794 12.941 12.941v402.909c0 7.147-5.794 12.941-12.941 12.941h25.883c7.147 0 12.941-5.794 12.941-12.941v-402.909c0-7.147-5.794-12.941-12.941-12.941z" fill="#e39b74"/><path d="m268.801 171.985-42.376-20.652c-2.859-1.393-6.199-1.393-9.058 0l-42.376 20.652c-2.865 1.396-6.204-.69-6.204-3.878v-92.399h84.649l18.981 8.628.863 82.046c-.001 3.187-1.613 6.999-4.479 5.603z" fill="#fed402"/><g><path d="m253.436 75.708v88.789l15.365 7.488c2.866 1.396 6.204-.69 6.204-3.878v-92.399z" fill="#fac600"/></g><path d="m494.5 107.635c0-55.303-34.832-100.135-90.135-100.135s-100.135 44.832-100.135 100.135 44.832 100.135 100.135 100.135 90.135-44.832 90.135-100.135z" fill="#fe646f"/><path d="m404.365 7.5c-4.408 0-8.749.288-13.006.84 49.158 6.376 87.129 48.4 87.129 99.295s-37.971 92.919-87.129 99.295c4.257.552 8.598.84 13.006.84 55.303 0 100.135-44.832 100.135-100.135s-44.832-100.135-100.135-100.135z" fill="#fd4755"/></g><g><path d="m512 107.635c0-59.35-48.285-107.635-107.635-107.635-20.371 0-40.206 5.72-57.358 16.541-3.503 2.211-4.551 6.842-2.341 10.345 2.209 3.503 6.841 4.552 10.345 2.341 14.753-9.307 31.819-14.227 49.354-14.227 51.079 0 92.635 41.556 92.635 92.635s-41.556 92.635-92.635 92.635-92.635-41.556-92.635-92.635c0-21.171 7.325-41.868 20.626-58.28 2.608-3.218 2.114-7.941-1.104-10.549-3.217-2.607-7.941-2.113-10.549 1.104-6.939 8.562-12.465 18.131-16.463 28.297h-283.799c-11.271.001-20.441 9.171-20.441 20.442v193.442c0 4.142 3.358 7.5 7.5 7.5s7.5-3.358 7.5-7.5v-193.442c0-3 2.441-5.441 5.441-5.441h140.846v84.899c0 4.1 2.076 7.845 5.552 10.018 1.919 1.2 4.082 1.806 6.254 1.805 1.763 0 3.533-.399 5.183-1.203l42.376-20.653c.79-.385 1.696-.385 2.486 0l42.376 20.652c3.687 1.797 7.962 1.571 11.438-.602 3.477-2.173 5.552-5.918 5.552-10.018v-18.709c0-4.142-3.358-7.5-7.5-7.5s-7.5 3.358-7.5 7.5v13.611l-37.794-18.419c-4.966-2.42-10.662-2.42-15.629-.001l-37.794 18.419v-79.799h91.218v27.652c0 4.142 3.358 7.5 7.5 7.5s7.5-3.358 7.5-7.5v-27.652h17.069c-1.862 7.971-2.844 16.165-2.844 24.427 0 59.35 48.285 107.635 107.635 107.635 8.4 0 16.577-.969 24.427-2.798v279.086c0 3.001-2.441 5.441-5.441 5.441h-402.91c-3 0-5.441-2.441-5.441-5.441v-176.78c0-4.142-3.358-7.5-7.5-7.5s-7.5 3.358-7.5 7.5v176.781c0 11.271 9.17 20.441 20.441 20.441h402.909c11.271 0 20.441-9.17 20.441-20.441v-283.766c39.905-15.764 68.209-54.718 68.209-100.158z"/><path d="m367.62 145.137c1.464 1.464 3.384 2.197 5.303 2.197s3.839-.732 5.303-2.197l26.895-26.895 26.138 26.138c1.464 1.464 3.384 2.197 5.303 2.197s3.839-.733 5.303-2.197c2.929-2.929 2.929-7.678 0-10.607l-26.138-26.138 26.138-26.138c2.929-2.929 2.929-7.678 0-10.606-2.929-2.929-7.678-2.929-10.606 0l-26.138 26.138-26.895-26.895c-2.929-2.929-7.678-2.929-10.607 0s-2.929 7.678 0 10.606l26.895 26.895-26.894 26.895c-2.929 2.929-2.929 7.678 0 10.607z"/></g></g></svg>