<svg id="Capa_1" enable-background="new 0 0 497 497" height="512" viewBox="0 0 497 497" width="512" xmlns="http://www.w3.org/2000/svg"><g><path d="m401.378 497h-388.437c-7.147 0-12.941-5.794-12.941-12.941v-402.91c0-7.147 5.794-12.941 12.941-12.941h148.346l52.246 8.628 53.972-8.628h133.873c7.147 0 12.941 5.794 12.941 12.941v402.909c0 7.148-5.794 12.942-12.941 12.942z" fill="#eaae8e"/><path d="m415.851 68.208h-25.883c7.147 0 12.941 5.794 12.941 12.941v402.909c0 7.147-5.794 12.941-12.941 12.941h25.883c7.147 0 12.941-5.794 12.941-12.941v-402.909c0-7.147-5.794-12.941-12.941-12.941z" fill="#e39b74"/><path d="m261.301 164.485-42.376-20.652c-2.859-1.393-6.199-1.393-9.058 0l-42.376 20.652c-2.865 1.396-6.204-.69-6.204-3.878v-92.399h84.649l18.981 8.628.863 82.046c-.001 3.187-1.613 6.999-4.479 5.603z" fill="#fed402"/><g><path d="m245.936 68.208v88.789l15.365 7.488c2.866 1.396 6.204-.69 6.204-3.878v-92.399z" fill="#fac600"/></g><path d="m487 100.135c0-55.303-34.832-100.135-90.135-100.135s-100.135 44.832-100.135 100.135 44.832 100.135 100.135 100.135 90.135-44.832 90.135-100.135z" fill="#fe646f"/><path d="m396.865 0c-4.408 0-8.749.288-13.006.84 49.158 6.376 87.129 48.4 87.129 99.295s-37.971 92.919-87.129 99.295c4.257.552 8.598.84 13.006.84 55.303 0 100.135-44.832 100.135-100.135s-44.832-100.135-100.135-100.135z" fill="#fd4755"/><path d="m434.366 126.273-26.138-26.138 26.138-26.138c2.929-2.929 2.929-7.678 0-10.607s-7.678-2.929-10.607 0l-26.138 26.138-26.895-26.895c-2.929-2.929-7.678-2.929-10.607 0s-2.929 7.678 0 10.607l26.895 26.895-26.894 26.895c-2.929 2.929-2.929 7.678 0 10.607s7.678 2.929 10.607 0l26.895-26.895 26.138 26.138c2.929 2.929 7.678 2.929 10.607 0 2.928-2.929 2.928-7.678-.001-10.607z" fill="#f7f9fa"/></g></svg>