<svg height="480pt" viewBox="-16 0 480 480" width="480pt" xmlns="http://www.w3.org/2000/svg"><path d="m8 8h112v160h-112zm0 0" fill="#87cee9"/><path d="m168 8h112v160h-112zm0 0" fill="#87cee9"/><path d="m104 200h96v128h-96zm0 0" fill="#87cee9"/><path d="m248 200h96v128h-96zm0 0" fill="#87cee9"/><path d="m176 360h96v112h-96zm0 0" fill="#87cee9"/><path d="m328 8h112v160h-112zm0 0" fill="#87cee9"/><path d="m56 168h-16v112h64v-16h-48zm0 0" fill="#f98c96"/><path d="m392 168v96h-48v16h64v-112zm0 0" fill="#f98c96"/><path d="m144 328h-16v104h48v-16h-32zm0 0" fill="#f98c96"/><path d="m296 416h-32v16h48v-104h-16zm0 0" fill="#f98c96"/><path d="m120 80h48v16h-48zm0 0" fill="#f98c96"/><path d="m280 80h48v16h-48zm0 0" fill="#f98c96"/><g fill="#195c85"><path d="m64 56c13.253906 0 24 10.746094 24 24s-10.746094 24-24 24-24-10.746094-24-24 10.746094-24 24-24zm0 0"/><path d="m40 136h48v32h-48zm0 0"/><path d="m200 136h48v32h-48zm0 0"/><path d="m224 48c-13.238281.039062-23.960938 10.761719-24 24v32h48v-32c-.039062-13.238281-10.761719-23.960938-24-24zm0 0"/><path d="m296 232c-8.179688-.558594-15.300781 5.542969-16 13.710938v18.289062h32v-18.289062c-.699219-8.167969-7.820312-14.269532-16-13.710938zm0 0"/><path d="m384 56c13.253906 0 24 10.746094 24 24s-10.746094 24-24 24-24-10.746094-24-24 10.746094-24 24-24zm0 0"/><path d="m360 136h48v32h-48zm0 0"/><path d="m168 248c0 8.835938-7.164062 16-16 16s-16-7.164062-16-16 7.164062-16 16-16 16 7.164062 16 16zm0 0"/><path d="m280 296h32v32h-32zm0 0"/><path d="m136 296h32v32h-32zm0 0"/><path d="m224 392c-8.835938 0-16 7.164062-16 16v32h32v-32c0-8.835938-7.164062-16-16-16zm0 0"/></g><path d="m0 0v176h40v104h56v56h32v96h40v48h112v-48h32v-96h40v-56h56v-104h40v-176h-128v80h-32v-80h-128v80h-32v-80zm16 160v-144h96v144h-16v-32h-64v32zm32 0v-16h32v16zm64 160v-112h80v112h-16v-32h-48v32zm48 0h-16v-16h16zm104 144h-80v-96h80zm40-144h-16v-16h16zm32 0h-16v-32h-48v32h-16v-112h80zm64-160h-32v-16h32zm-64-144h96v144h-16v-32h-64v32h-16zm-160 0h96v144h-16v-32h-64v32h-16zm64 144h-32v-16h32zm-80-64v80h128v-80h32v80h72v88h-40v-72h-112v144h56v80h-16v-64h-112v64h-24v-80h64v-144h-112v72h-40v-88h72v-80zm0 0"/><path d="m64 112c17.671875 0 32-14.328125 32-32s-14.328125-32-32-32-32 14.328125-32 32 14.328125 32 32 32zm0-48c8.835938 0 16 7.164062 16 16s-7.164062 16-16 16-16-7.164062-16-16 7.164062-16 16-16zm0 0"/><path d="m256 72c0-17.671875-14.328125-32-32-32s-32 14.328125-32 32v40h64zm-16 24h-32v-24c0-8.835938 7.164062-16 16-16s16 7.164062 16 16zm0 0"/><path d="m320 245.710938c-1.234375-12.328126-11.609375-21.714844-24-21.714844s-22.765625 9.386718-24 21.714844v26.289062h48zm-16 10.289062h-16v-10.289062c0-3.039063 3.742188-5.710938 8-5.710938s8 2.671875 8 5.710938zm0 0"/><path d="m384 112c17.671875 0 32-14.328125 32-32s-14.328125-32-32-32-32 14.328125-32 32 14.328125 32 32 32zm0-48c8.835938 0 16 7.164062 16 16s-7.164062 16-16 16-16-7.164062-16-16 7.164062-16 16-16zm0 0"/><path d="m152 272c13.253906 0 24-10.746094 24-24s-10.746094-24-24-24-24 10.746094-24 24 10.746094 24 24 24zm0-32c4.417969 0 8 3.582031 8 8s-3.582031 8-8 8-8-3.582031-8-8 3.582031-8 8-8zm0 0"/><path d="m224 384c-13.253906 0-24 10.746094-24 24v40h48v-40c0-13.253906-10.746094-24-24-24zm8 48h-16v-24c0-4.417969 3.582031-8 8-8s8 3.582031 8 8zm0 0"/></svg>