<svg id="flat" height="512" viewBox="0 0 512 512" width="512" xmlns="http://www.w3.org/2000/svg"><path d="m184 232h256v160h-256z" fill="#7dafff"/><path d="m24 376h240v112h-240z" fill="#ef5e3b" transform="matrix(-1 0 0 -1 288 864)"/><g fill="#d14521"><path d="m216 400h16v64h-16z"/><path d="m184 400h16v64h-16z"/><path d="m152 400h16v64h-16z"/><path d="m120 400h16v64h-16z"/><path d="m88 400h16v64h-16z"/><path d="m56 400h16v64h-16z"/></g><path d="m24 264h208v112h-208z" fill="#f6bb00" transform="matrix(-1 0 0 -1 256 640)"/><path d="m184 288h16v64h-16z" fill="#eda600"/><path d="m152 288h16v64h-16z" fill="#eda600"/><path d="m120 288h16v64h-16z" fill="#eda600"/><path d="m88 288h16v64h-16z" fill="#eda600"/><path d="m56 288h16v64h-16z" fill="#eda600"/><path d="m488 232v-40l-176-88-176 88v40l176-88z" fill="#548aff"/><path d="m136 232h48v32h-48z" fill="#e0edff"/><path d="m440 232h48v256h-48z" fill="#e0edff"/><path d="m232 304h184v16h-184z" fill="#639aff"/><path d="m232 336h184v16h-184z" fill="#639aff"/><path d="m232 272h184v16h-184z" fill="#639aff"/><path d="m136 232 176-88 176 88z" fill="#c8dbf7"/><path d="m264 392h176v96h-176z" fill="#a4b9e0"/></svg>