<svg height="512" viewBox="0 0 64 64" width="512" xmlns="http://www.w3.org/2000/svg"><g id="Box"><g fill="#9bc9ff"><path d="m32 61-22-8v-31l22 7z"/><path d="m32 61 22-8v-31l-22 7z"/><path d="m3 30 22 7 7-8-22-7z"/><path d="m39 37 22-7-7-8-22 7z"/><path d="m25 7-22 7 7 8 22-7z"/><path d="m39 7-7 8 22 7 7-8z"/></g><path d="m32 48a1 1 0 0 1 -1-1v-2a1 1 0 0 1 2 0v2a1 1 0 0 1 -1 1z" fill="#1e81ce"/><path d="m55.329 22 6.423-7.341a1 1 0 0 0 -.449-1.612l-22-7a1 1 0 0 0 -1.055.294l-6.248 7.14-6.248-7.14a1 1 0 0 0 -1.052-.294l-22 7a1 1 0 0 0 -.449 1.612l6.42 7.341-6.423 7.341a1 1 0 0 0 .452 1.612l6.3 2.006v20.041a1 1 0 0 0 .658.94l22 8a.17.17 0 0 1 .022 0 .942.942 0 0 0 .64 0 .17.17 0 0 1 .022 0l22-8a1 1 0 0 0 .658-.94v-20.041l6.3-2.006a1 1 0 0 0 .449-1.612zm-23.329 5.95-18.7-5.95 17.7-5.632v8.632a1 1 0 0 0 2 0v-8.632l17.7 5.632zm7.321-19.8 19.921 6.34-5.563 6.359-19.921-6.339zm-14.642 0 5.563 6.359-19.921 6.34-5.563-6.359zm-14.358 15 19.921 6.34-5.563 6.359-19.921-6.339zm42.679 29.15-20 7.272v-8.572a1 1 0 0 0 -2 0v8.572l-20-7.272v-18.7l13.7 4.358a.983.983 0 0 0 .3.042 1 1 0 0 0 .752-.341l5.248-6v9.341a1 1 0 0 0 2 0v-9.339l5.248 6a1 1 0 0 0 .752.339.987.987 0 0 0 .3-.047l13.7-4.353zm-13.679-16.451-5.563-6.359 19.921-6.339 5.563 6.359z" fill="#1e81ce"/></g></svg>