<?xml version="1.0" encoding="iso-8859-1"?>
<!-- Generator: Adobe Illustrator 19.0.0, SVG Export Plug-In . SVG Version: 6.00 Build 0)  -->
<svg version="1.1" id="Capa_1" xmlns="http://www.w3.org/2000/svg" xmlns:xlink="http://www.w3.org/1999/xlink" x="0px" y="0px"
	 viewBox="0 0 409.6 409.6" style="enable-background:new 0 0 409.6 409.6;" xml:space="preserve">
<polygon style="fill:#FCD462;" points="204.651,307.273 364.666,265.055 364.666,53.97 204.651,53.216 "/>
<polygon style="fill:#EAB659;" points="204.651,307.273 44.637,265.055 44.637,53.97 204.651,53.216 "/>
<polygon style="fill:#EAAF47;" points="0,71.743 160.68,0 205.216,53.216 44.536,124.959 "/>
<polygon style="fill:#F6C358;" points="409.6,71.743 249.187,0 204.651,53.216 365.064,124.959 "/>
<polygon style="fill:#FCD462;" points="204.651,409.6 44.637,367.383 44.637,124.959 204.651,167.176 "/>
<g>
	<polygon style="fill:#F6C358;" points="204.651,409.6 364.666,367.383 364.666,124.959 204.651,167.176 	"/>
	<polygon style="fill:#F6C358;" points="170.363,236.38 10.348,194.163 44.637,124.959 204.651,167.176 	"/>
</g>
<polygon style="fill:#EAAF47;" points="230.558,236.38 390.573,194.163 364.666,124.959 204.651,167.176 "/>
<g>
</g>
<g>
</g>
<g>
</g>
<g>
</g>
<g>
</g>
<g>
</g>
<g>
</g>
<g>
</g>
<g>
</g>
<g>
</g>
<g>
</g>
<g>
</g>
<g>
</g>
<g>
</g>
<g>
</g>
</svg>
