<svg height="464pt" viewBox="-40 0 464 464" width="464pt" xmlns="http://www.w3.org/2000/svg"><path d="m256 464h-208c-17.671875 0-32-14.328125-32-32v-130.457031c.003906-14.230469-2.714844-28.332031-8-41.542969s-8.00390625-27.3125-8-41.542969v-186.457031c0-17.671875 14.328125-32 32-32h240c17.671875 0 32 14.328125 32 32v186.457031c.003906 14.230469-2.714844 28.332031-8 41.542969s-8.003906 27.3125-8 41.542969v130.457031c0 17.671875-14.328125 32-32 32zm0 0" fill="#4c5d72"/><path d="m48 32h208c8.835938 0 16 7.164062 16 16v176c0 8.835938-7.164062 16-16 16h-208c-8.835938 0-16-7.164062-16-16v-176c0-8.835938 7.164062-16 16-16zm0 0" fill="#3d4d63"/><path d="m304 32c-.027344-5.632812-1.5625-11.15625-4.441406-16h-179.558594c-10.140625.019531-19.171875 6.429688-22.527344 16h158.527344c8.835938 0 16 7.164062 16 16v176h31.734375c.089844-1.847656.265625-3.6875.265625-5.542969zm0 0" fill="#3d4d63"/><path d="m96 200c0 13.253906 10.746094 24 24 24h152v-176c0-8.835938-7.164062-16-16-16h-158.527344c-.949218 2.5625-1.445312 5.269531-1.472656 8zm0 0" fill="#2e3e51"/><path d="m104 0h256c13.253906 0 24 10.746094 24 24v160c0 13.253906-10.746094 24-24 24h-256c-13.253906 0-24-10.746094-24-24v-160c0-13.253906 10.746094-24 24-24zm0 0" fill="#348fd9"/><path d="m360 0-208 208h208c13.253906 0 24-10.746094 24-24v-160c0-13.253906-10.746094-24-24-24zm0 0" fill="#3086cd"/><path d="m112 40h48v48h-48zm0 0" fill="#ffb531"/><g fill="#79c6e8"><path d="m104 128h16v16h-16zm0 0"/><path d="m136 128h16v16h-16zm0 0"/><path d="m168 128h16v16h-16zm0 0"/><path d="m200 128h16v16h-16zm0 0"/><path d="m232 128h16v16h-16zm0 0"/><path d="m104 160h48v16h-48zm0 0"/><path d="m168 160h48v16h-48zm0 0"/><path d="m304 40h48v16h-48zm0 0"/><path d="m272 40h16v16h-16zm0 0"/><path d="m272 72h80v16h-80zm0 0"/></g><path d="m328 128c-5.921875.015625-11.625 2.238281-16 6.230469-9.589844-8.707031-24.363281-8.234375-33.375 1.074219-9.011719 9.304687-9.011719 24.085937 0 33.390624 9.011719 9.308594 23.785156 9.78125 33.375 1.074219 7.949219 7.214844 19.722656 8.277344 28.832031 2.59375 9.109375-5.679687 13.339844-16.71875 10.355469-27.03125-2.980469-10.3125-12.453125-17.390625-23.1875-17.332031zm0 0" fill="#e94f4f"/><path d="m144 400h16c8.835938 0 16 7.164062 16 16s-7.164062 16-16 16h-16c-8.835938 0-16-7.164062-16-16s7.164062-16 16-16zm0 0" fill="#ffb531"/><path d="m224 400h16c8.835938 0 16 7.164062 16 16s-7.164062 16-16 16h-16c-8.835938 0-16-7.164062-16-16s7.164062-16 16-16zm0 0" fill="#7eb457"/><path d="m64 400h16c8.835938 0 16 7.164062 16 16s-7.164062 16-16 16h-16c-8.835938 0-16-7.164062-16-16s7.164062-16 16-16zm0 0" fill="#cf3a3a"/><path d="m144 336h16c8.835938 0 16 7.164062 16 16s-7.164062 16-16 16h-16c-8.835938 0-16-7.164062-16-16s7.164062-16 16-16zm0 0" fill="#c2c2c0"/><path d="m224 336h16c8.835938 0 16 7.164062 16 16s-7.164062 16-16 16h-16c-8.835938 0-16-7.164062-16-16s7.164062-16 16-16zm0 0" fill="#c2c2c0"/><path d="m64 336h16c8.835938 0 16 7.164062 16 16s-7.164062 16-16 16h-16c-8.835938 0-16-7.164062-16-16s7.164062-16 16-16zm0 0" fill="#c2c2c0"/><path d="m144 272h16c8.835938 0 16 7.164062 16 16s-7.164062 16-16 16h-16c-8.835938 0-16-7.164062-16-16s7.164062-16 16-16zm0 0" fill="#c2c2c0"/><path d="m224 272h16c8.835938 0 16 7.164062 16 16s-7.164062 16-16 16h-16c-8.835938 0-16-7.164062-16-16s7.164062-16 16-16zm0 0" fill="#c2c2c0"/><path d="m64 272h16c8.835938 0 16 7.164062 16 16s-7.164062 16-16 16h-16c-8.835938 0-16-7.164062-16-16s7.164062-16 16-16zm0 0" fill="#c2c2c0"/></svg>