<svg enable-background="new 0 0 24 24" height="512" viewBox="0 0 24 24" width="512" xmlns="http://www.w3.org/2000/svg"><path d="m9.99 13.53c-.63 1.19-.99 2.54-.99 3.97 0 .73.09 1.44.27 2.11l-9.27-5.02v-9.73l9.99 4.87z" fill="#ffcc80"/><path d="m20 4.86v4.51c-.79-.24-1.63-.37-2.5-.37-3.24 0-6.06 1.82-7.49 4.49v-3.76z" fill="#ffb74d"/><path d="m20 4.86-9.99 4.87-3.89-1.89-1.62-.79-4.5-2.19 9.99-4.86 4.26 2.07 1.7.82z" fill="#ffa726"/><path d="m15.732 2.796-9.883 4.924v4.974l-1.567-.797v-4.941l9.75-4.98z" fill="#795548"/><path d="m0 4.86v9.73l9.27 5.02c-.18-.67-.27-1.38-.27-2.11 0-1.43.36-2.78.99-3.97v-3.8l-4.132-2.014-.009.004v4.974l-1.567-.798v-4.94l.009-.005z" fill="#deb26f"/><path d="m10 5.652-4.138 2.062.258.126 3.88 1.885zm-.01-5.652-9.99 4.86 4.294 2.09 5.706-2.915v-4.03z" fill="#de9121"/><path d="m10 4.035-5.706 2.915-.003.002-.009.004v4.941l1.567.797v-4.974l.009-.004.004-.002 4.138-2.062z" fill="#694a3f"/><path d="m17.5 11c-3.584 0-6.5 2.916-6.5 6.5s2.916 6.5 6.5 6.5 6.5-2.916 6.5-6.5-2.916-6.5-6.5-6.5z" fill="#2196f3"/><path d="m17.5 21c-.414 0-.75-.336-.75-.75v-5.5c0-.414.336-.75.75-.75s.75.336.75.75v5.5c0 .414-.336.75-.75.75z" fill="#fff"/><path d="m20.25 18.25h-5.5c-.414 0-.75-.336-.75-.75s.336-.75.75-.75h5.5c.414 0 .75.336.75.75s-.336.75-.75.75z" fill="#fff"/><path d="m17.5 11c-3.584 0-6.5 2.916-6.5 6.5s2.916 6.5 6.5 6.5v-3c-.414 0-.75-.336-.75-.75v-2h-2c-.414 0-.75-.336-.75-.75s.336-.75.75-.75h2v-2c0-.414.336-.75.75-.75z" fill="#1d83d4"/><g fill="#dedede"><path d="m17.5 18.25h-.75v2c0 .414.336.75.75.75zm0-4.25c-.414 0-.75.336-.75.75v2h.75z"/><path d="m17.5 16.75h-.75-2c-.414 0-.75.336-.75.75s.336.75.75.75h2 .75z"/></g></svg>