<?xml version="1.0" encoding="iso-8859-1"?>
<!-- Generator: Adobe Illustrator 19.0.0, SVG Export Plug-In . SVG Version: 6.00 Build 0)  -->
<svg version="1.1" id="Capa_1" xmlns="http://www.w3.org/2000/svg" xmlns:xlink="http://www.w3.org/1999/xlink" x="0px" y="0px"
	 viewBox="0 0 512 512" style="enable-background:new 0 0 512 512;" xml:space="preserve">
<polygon style="fill:#4398D1;" points="256,0 0,141.241 0,512 44.138,512 44.138,194.207 467.862,194.207 467.862,512 512,512 
	512,150.069 "/>
<g>
	<path style="fill:#3E8CC7;" d="M467.862,512H512V225.457c-14.539,10.24-29.246,20.039-44.138,29.396V512z"/>
	<path style="fill:#3E8CC7;" d="M0,512h44.138v-82.008C28.954,433.699,14.239,437.054,0,440.055V512z"/>
</g>
<rect x="44.138" y="194.207" style="fill:#E5E5E5;" width="423.724" height="70.621"/>
<rect x="44.138" y="220.69" style="fill:#CFCFCF;" width="423.724" height="17.655"/>
<rect x="211.862" y="123.586" style="fill:#E5E5E5;" width="88.276" height="35.31"/>
<rect x="326.621" y="300.138" style="fill:#FDB62F;" width="105.931" height="105.931"/>
<rect x="361.931" y="300.138" style="fill:#FD7B2F;" width="35.31" height="35.31"/>
<path style="fill:#FFA230;" d="M326.621,406.069h105.931v-71.415c-30.455,25.556-66.904,42.964-105.931,50.582V406.069z"/>
<rect x="326.621" y="406.069" style="fill:#FDB62F;" width="105.931" height="105.931"/>
<rect x="361.931" y="406.069" style="fill:#FD7B2F;" width="35.31" height="35.31"/>
<path style="fill:#FFA230;" d="M326.621,512h105.931v-71.415c-30.455,25.556-66.904,42.964-105.931,50.582V512z"/>
<rect x="220.69" y="406.069" style="fill:#FDB62F;" width="105.931" height="105.931"/>
<rect x="256" y="406.069" style="fill:#FD7B2F;" width="35.31" height="35.31"/>
<path style="fill:#FFA230;" d="M220.69,512h105.931v-71.415c-30.455,25.556-66.904,42.964-105.931,50.582V512z"/>
<rect x="211.862" y="158.897" style="fill:#3E8CC7;" width="88.276" height="17.655"/>
<g>
</g>
<g>
</g>
<g>
</g>
<g>
</g>
<g>
</g>
<g>
</g>
<g>
</g>
<g>
</g>
<g>
</g>
<g>
</g>
<g>
</g>
<g>
</g>
<g>
</g>
<g>
</g>
<g>
</g>
</svg>
