<?xml version="1.0" encoding="iso-8859-1"?>
<!-- Generator: Adobe Illustrator 19.0.0, SVG Export Plug-In . SVG Version: 6.00 Build 0)  -->
<svg version="1.1" id="Capa_1" xmlns="http://www.w3.org/2000/svg" xmlns:xlink="http://www.w3.org/1999/xlink" x="0px" y="0px"
	 viewBox="0 0 512 512" style="enable-background:new 0 0 512 512;" xml:space="preserve">
<path style="fill:#ECF0F1;" d="M483.31,512H28.69C12.844,512,0,499.156,0,483.31V105.931h512V483.31
	C512,499.156,499.156,512,483.31,512z"/>
<path style="fill:#687492;" d="M512,105.931H0V28.69C0,12.844,12.844,0,28.69,0H483.31C499.156,0,512,12.844,512,28.69V105.931z"/>
<rect x="35.31" y="35.31" style="fill:#E64C3C;" width="35.31" height="35.31"/>
<rect x="105.931" y="35.31" style="fill:#F0C419;" width="35.31" height="35.31"/>
<rect x="176.552" y="35.31" style="fill:#24AE5F;" width="35.31" height="35.31"/>
<path style="fill:#E64C3C;" d="M370.759,459.034h-70.621c-14.601,0-26.483-11.882-26.483-26.483s11.882-26.483,26.483-26.483h70.621
	c14.601,0,26.483,11.882,26.483,26.483S385.359,459.034,370.759,459.034z"/>
<path style="fill:#4482C3;" d="M211.862,459.034h-70.621c-14.601,0-26.483-11.882-26.483-26.483s11.882-26.483,26.483-26.483h70.621
	c14.601,0,26.483,11.882,26.483,26.483S226.463,459.034,211.862,459.034z"/>
<g>
	<path style="fill:#BDC3C7;" d="M388.414,308.966H123.586c-4.873,0-8.828-3.946-8.828-8.828v-35.31c0-4.882,3.955-8.828,8.828-8.828
		h264.828c4.873,0,8.828,3.946,8.828,8.828v35.31C397.241,305.02,393.287,308.966,388.414,308.966z M132.414,291.31h247.172v-17.655
		H132.414V291.31z"/>
	<path style="fill:#BDC3C7;" d="M388.414,379.586H123.586c-4.873,0-8.828-3.946-8.828-8.828v-35.31c0-4.882,3.955-8.828,8.828-8.828
		h264.828c4.873,0,8.828,3.946,8.828,8.828v35.31C397.241,375.64,393.287,379.586,388.414,379.586z M132.414,361.931h247.172
		v-17.655H132.414V361.931z"/>
</g>
<g>
	<path style="fill:#26B99A;" d="M158.897,229.517c-2.26,0-4.52-0.865-6.241-2.586c-3.452-3.452-3.452-9.031,0-12.482l52.966-52.966
		c3.443-3.452,9.039-3.452,12.482,0c3.452,3.452,3.452,9.031,0,12.482l-52.966,52.966
		C163.416,228.652,161.156,229.517,158.897,229.517z"/>
	<path style="fill:#26B99A;" d="M264.828,229.517c-2.26,0-4.52-0.865-6.241-2.586l-52.966-52.966c-3.452-3.452-3.452-9.031,0-12.482
		c3.443-3.452,9.039-3.452,12.482,0l52.965,52.966c3.452,3.452,3.452,9.031,0,12.482
		C269.347,228.652,267.087,229.517,264.828,229.517z"/>
	<path style="fill:#26B99A;" d="M247.172,211.862c-2.26,0-4.52-0.865-6.241-2.586c-3.452-3.452-3.452-9.031,0-12.482l52.966-52.966
		c3.443-3.452,9.039-3.452,12.482,0c3.452,3.452,3.452,9.031,0,12.482l-52.965,52.966
		C251.692,210.997,249.432,211.862,247.172,211.862z"/>
	<path style="fill:#26B99A;" d="M353.103,211.862c-2.26,0-4.52-0.865-6.241-2.586l-52.966-52.966c-3.452-3.452-3.452-9.031,0-12.482
		c3.443-3.452,9.039-3.452,12.482,0l52.966,52.966c3.452,3.452,3.452,9.031,0,12.482
		C357.623,210.997,355.363,211.862,353.103,211.862z"/>
</g>
<g>
</g>
<g>
</g>
<g>
</g>
<g>
</g>
<g>
</g>
<g>
</g>
<g>
</g>
<g>
</g>
<g>
</g>
<g>
</g>
<g>
</g>
<g>
</g>
<g>
</g>
<g>
</g>
<g>
</g>
</svg>
