<svg height="443pt" viewBox="0 0 442 443" width="443pt" xmlns="http://www.w3.org/2000/svg"><path d="m252.421875 263.308594v.011718l-21.570313 64.488282 64.5-21.558594 39.097657-39.191406v175.941406h-333.949219v-443h252.988281v80.949219h80.960938v100.300781l.109375.109375zm0 0" fill="#00efd1"/><path d="m334.449219 80.949219h-80.960938v-80.949219zm0 0" fill="#00acea"/><g fill="#f4b844"><path d="m238.828125 310.859375h-178.136719c-4.417968 0-8-3.582031-8-8s3.582032-8 8-8h178.136719c4.421875 0 8 3.582031 8 8s-3.578125 8-8 8zm0 0"/><path d="m273.699219 350.859375h-213.007813c-4.417968 0-8-3.582031-8-8s3.582032-8 8-8h213.007813c4.417969 0 8 3.582031 8 8s-3.582031 8-8 8zm0 0"/><path d="m273.699219 390.859375h-213.007813c-4.417968 0-8-3.582031-8-8s3.582032-8 8-8h213.007813c4.417969 0 8 3.582031 8 8s-3.582031 8-8 8zm0 0"/><path d="m173.699219 270.859375h-113.007813c-4.417968 0-8-3.582031-8-8s3.582032-8 8-8h113.007813c4.417969 0 8 3.582031 8 8s-3.582031 8-8 8zm0 0"/></g><path d="m443.480469 157.789062-35.539063 35.621094-.203125-.199218-42.476562-42.492188 35.609375-35.527344zm0 0" fill="#fedb41"/><path d="m334.449219 267.058594-39.097657 39.191406-42.929687-42.929688v-.011718l82.136719-81.949219 30.703125-30.640625 42.476562 42.492188.203125.199218zm0 0" fill="#00acea"/><path d="m252.421875 263.320312 42.929687 42.929688-64.5 21.558594zm0 0" fill="#fedb41"/></svg>