<svg height="464pt" viewBox="0 -24 464 464" width="464pt" xmlns="http://www.w3.org/2000/svg"><path d="m392 288h52.152344v32h-52.152344zm0 0" fill="#9c2d20"/><path d="m0 0h32v384h-32zm0 0" fill="#d3843d"/><path d="m0 384h464v32h-464zm0 0" fill="#9c2d20"/><path d="m432 0h32v384h-32zm0 0" fill="#d3843d"/><path d="m80 48h16c8.835938 0 16 7.164062 16 16v32c0 8.835938-7.164062 16-16 16h-16c-8.835938 0-16-7.164062-16-16v-32c0-8.835938 7.164062-16 16-16zm0 0" fill="#dd3e46"/><path d="m128 48h16c8.835938 0 16 7.164062 16 16v32c0 8.835938-7.164062 16-16 16h-16c-8.835938 0-16-7.164062-16-16v-32c0-8.835938 7.164062-16 16-16zm0 0" fill="#7fcac9"/><path d="m224 48h16c8.835938 0 16 7.164062 16 16v32c0 8.835938-7.164062 16-16 16h-16c-8.835938 0-16-7.164062-16-16v-32c0-8.835938 7.164062-16 16-16zm0 0" fill="#dd3e46"/><path d="m272 48h16c8.835938 0 16 7.164062 16 16v32c0 8.835938-7.164062 16-16 16h-16c-8.835938 0-16-7.164062-16-16v-32c0-8.835938 7.164062-16 16-16zm0 0" fill="#7fcac9"/><path d="m320 48h16c8.835938 0 16 7.164062 16 16v32c0 8.835938-7.164062 16-16 16h-16c-8.835938 0-16-7.164062-16-16v-32c0-8.835938 7.164062-16 16-16zm0 0" fill="#dd3e46"/><path d="m80 160h16c8.835938 0 16 7.164062 16 16v32c0 8.835938-7.164062 16-16 16h-16c-8.835938 0-16-7.164062-16-16v-32c0-8.835938 7.164062-16 16-16zm0 0" fill="#7fcac9"/><path d="m128 160h16c8.835938 0 16 7.164062 16 16v32c0 8.835938-7.164062 16-16 16h-16c-8.835938 0-16-7.164062-16-16v-32c0-8.835938 7.164062-16 16-16zm0 0" fill="#dd3e46"/><path d="m176 160h16c8.835938 0 16 7.164062 16 16v32c0 8.835938-7.164062 16-16 16h-16c-8.835938 0-16-7.164062-16-16v-32c0-8.835938 7.164062-16 16-16zm0 0" fill="#7fcac9"/><path d="m224 160h16c8.835938 0 16 7.164062 16 16v32c0 8.835938-7.164062 16-16 16h-16c-8.835938 0-16-7.164062-16-16v-32c0-8.835938 7.164062-16 16-16zm0 0" fill="#dd3e46"/><path d="m368 160h16c8.835938 0 16 7.164062 16 16v32c0 8.835938-7.164062 16-16 16h-16c-8.835938 0-16-7.164062-16-16v-32c0-8.835938 7.164062-16 16-16zm0 0" fill="#7fcac9"/><g fill="#9c2d20"><path d="m32 64h32v32h-32zm0 0"/><path d="m160 64h48v32h-48zm0 0"/><path d="m352 64h80v32h-80zm0 0"/><path d="m400 176h32v32h-32zm0 0"/><path d="m32 288h32v32h-32zm0 0"/><path d="m256 176h96v32h-96zm0 0"/><path d="m32 176h32v32h-32zm0 0"/></g><path d="m80 272h16c8.835938 0 16 7.164062 16 16v32c0 8.835938-7.164062 16-16 16h-16c-8.835938 0-16-7.164062-16-16v-32c0-8.835938 7.164062-16 16-16zm0 0" fill="#7fcac9"/><path d="m176 272h16c8.835938 0 16 7.164062 16 16v32c0 8.835938-7.164062 16-16 16h-16c-8.835938 0-16-7.164062-16-16v-32c0-8.835938 7.164062-16 16-16zm0 0" fill="#dd3e46"/><path d="m224 272h16c8.835938 0 16 7.164062 16 16v32c0 8.835938-7.164062 16-16 16h-16c-8.835938 0-16-7.164062-16-16v-32c0-8.835938 7.164062-16 16-16zm0 0" fill="#7fcac9"/><path d="m312 272h16c8.835938 0 16 7.164062 16 16v32c0 8.835938-7.164062 16-16 16h-16c-8.835938 0-16-7.164062-16-16v-32c0-8.835938 7.164062-16 16-16zm0 0" fill="#dd3e46"/><path d="m360 272h16c8.835938 0 16 7.164062 16 16v32c0 8.835938-7.164062 16-16 16h-16c-8.835938 0-16-7.164062-16-16v-32c0-8.835938 7.164062-16 16-16zm0 0" fill="#7fcac9"/><path d="m112 288h48v32h-48zm0 0" fill="#9c2d20"/><path d="m256 288h40v32h-40zm0 0" fill="#9c2d20"/></svg>