<svg height="470.272pt" viewBox="0 0 470.272 470.272" width="470.272pt" xmlns="http://www.w3.org/2000/svg"><path d="m30.136719 466.273438h-18.136719c-4.414062 0-8-3.585938-8-8v-408.480469c0-4.417969 3.585938-8 8-8h18.136719c4.414062 0 8 3.582031 8 8v408.472656c0 4.421875-3.585938 8.007813-8 8.007813zm0 0" fill="#82d9ff"/><path d="m30.136719 470.273438h-18.136719c-6.617188 0-12-5.386719-12-12v-408.480469c0-6.617188 5.382812-12 12-12h18.136719c6.617187 0 12 5.382812 12 12v408.480469c0 6.613281-5.382813 12-12 12zm-18.136719-424.480469c-2.199219 0-4 1.792969-4 4v408.480469c0 2.207031 1.800781 4 4 4h18.136719c2.199219 0 4-1.792969 4-4v-408.480469c0-2.207031-1.800781-4-4-4zm0 0" fill="#63312d"/><path d="m133.136719 466.273438h-18.136719c-4.414062 0-8-3.585938-8-8v-408.480469c0-4.417969 3.585938-8 8-8h18.136719c4.414062 0 8 3.582031 8 8v408.472656c0 4.421875-3.585938 8.007813-8 8.007813zm0 0" fill="#52b8d9"/><path d="m133.136719 470.273438h-18.136719c-6.617188 0-12-5.386719-12-12v-408.480469c0-6.617188 5.382812-12 12-12h18.136719c6.617187 0 12 5.382812 12 12v408.480469c0 6.613281-5.382813 12-12 12zm-18.136719-424.480469c-2.199219 0-4 1.792969-4 4v408.480469c0 2.207031 1.800781 4 4 4h18.136719c2.199219 0 4-1.792969 4-4v-408.480469c0-2.207031-1.800781-4-4-4zm0 0" fill="#63312d"/><path d="m38.136719 237.785156h291v32.503906h-291zm0 0" fill="#f8f3f3"/><path d="m329.136719 274.28125h-291c-2.207031 0-4-1.792969-4-4v-32.503906c0-2.210938 1.792969-4 4-4h291c2.207031 0 4 1.789062 4 4v32.503906c0 2.207031-1.792969 4-4 4zm-287-8h283v-24.503906h-283zm0 0" fill="#63312d"/><path d="m38.136719 81.785156h291v32.503906h-291zm0 0" fill="#f8f3f3"/><path d="m329.136719 118.28125h-291c-2.207031 0-4-1.792969-4-4v-32.503906c0-2.210938 1.792969-4 4-4h291c2.207031 0 4 1.789062 4 4v32.503906c0 2.207031-1.792969 4-4 4zm-287-8h283v-24.503906h-283zm0 0" fill="#63312d"/><path d="m38.136719 393.785156h291v32.503906h-291zm0 0" fill="#f8f3f3"/><path d="m329.136719 430.28125h-291c-2.207031 0-4-1.792969-4-4v-32.503906c0-2.210938 1.792969-4 4-4h291c2.207031 0 4 1.789062 4 4v32.503906c0 2.207031-1.792969 4-4 4zm-287-8h283v-24.503906h-283zm0 0" fill="#63312d"/><path d="m355.273438 466.273438h-18.136719c-4.417969 0-8-3.585938-8-8v-408.480469c0-4.417969 3.582031-8 8-8h18.136719c4.414062 0 8 3.582031 8 8v408.472656c0 4.421875-3.585938 8.007813-8 8.007813zm0 0" fill="#82d9ff"/><path d="m355.273438 470.273438h-18.136719c-6.617188 0-12-5.386719-12-12v-408.480469c0-6.617188 5.382812-12 12-12h18.136719c6.613281 0 12 5.382812 12 12v408.480469c0 6.613281-5.386719 12-12 12zm-18.136719-424.480469c-2.199219 0-4 1.792969-4 4v408.480469c0 2.207031 1.800781 4 4 4h18.136719c2.199218 0 4-1.792969 4-4v-408.480469c0-2.207031-1.800782-4-4-4zm0 0" fill="#63312d"/><path d="m458.273438 466.273438h-18.136719c-4.417969 0-8-3.585938-8-8v-408.480469c0-4.417969 3.582031-8 8-8h18.136719c4.414062 0 8 3.582031 8 8v408.472656c0 4.421875-3.585938 8.007813-8 8.007813zm0 0" fill="#52b8d9"/><g fill="#63312d"><path d="m458.273438 470.273438h-18.136719c-6.617188 0-12-5.386719-12-12v-408.480469c0-6.617188 5.382812-12 12-12h18.136719c6.613281 0 12 5.382812 12 12v408.480469c0 6.613281-5.386719 12-12 12zm-18.136719-424.480469c-2.199219 0-4 1.792969-4 4v408.480469c0 2.207031 1.800781 4 4 4h18.136719c2.199218 0 4-1.792969 4-4v-408.480469c0-2.207031-1.800782-4-4-4zm0 0"/><path d="m432.136719 274.28125h-68.863281c-2.210938 0-4-1.792969-4-4v-32.503906c0-2.210938 1.789062-4 4-4h68.863281c2.207031 0 4 1.789062 4 4v32.503906c0 2.207031-1.792969 4-4 4zm-64.863281-8h60.863281v-24.503906h-60.863281zm0 0"/><path d="m432.136719 118.304688h-68.863281c-2.210938 0-4-1.792969-4-4v-32.503907c0-2.207031 1.789062-4 4-4h68.863281c2.207031 0 4 1.792969 4 4v32.503907c0 2.207031-1.792969 4-4 4zm-64.863281-8h60.863281v-24.503907h-60.863281zm0 0"/><path d="m432.136719 430.28125h-68.863281c-2.210938 0-4-1.792969-4-4v-32.503906c0-2.210938 1.789062-4 4-4h68.863281c2.207031 0 4 1.789062 4 4v32.503906c0 2.207031-1.792969 4-4 4zm-64.863281-8h60.863281v-24.503906h-60.863281zm0 0"/></g><path d="m229.296875 303.894531h99.238281v89.890625h-99.238281zm0 0" fill="#efc36a"/><path d="m328.535156 397.785156h-99.230468c-2.207032 0-4-1.792968-4-4v-89.890625c0-2.207031 1.792968-4 4-4h99.230468c2.207032 0 4 1.792969 4 4v89.882813c0 2.214844-1.792968 4.007812-4 4.007812zm-95.230468-8h91.230468v-81.890625h-91.230468zm0 0" fill="#63312d"/><path d="m202.414062 303.894531h99.242188v89.890625h-99.242188zm0 0" fill="#f9dd9d"/><path d="m218.414062 319.894531h83.242188v-16h-99.242188v89.890625h16zm0 0" fill="#ffeecf"/><path d="m301.648438 397.785156h-99.234376c-2.207031 0-4-1.792968-4-4v-89.890625c0-2.207031 1.792969-4 4-4h99.234376c2.207031 0 4 1.792969 4 4v89.882813c0 2.214844-1.785157 4.007812-4 4.007812zm-95.234376-8h91.234376v-81.890625h-91.234376zm0 0" fill="#63312d"/><path d="m240.976562 303.894531h22.121094v29.960938h-22.121094zm0 0" fill="#f8f3f3"/><path d="m263.097656 337.855469h-22.128906c-2.207031 0-4-1.792969-4-4v-29.960938c0-2.207031 1.792969-4 4-4h22.128906c2.207032 0 4 1.792969 4 4v29.960938c0 2.214843-1.792968 4-4 4zm-18.128906-8h14.128906v-21.960938h-14.128906zm0 0" fill="#63312d"/><path d="m168.015625 147.894531h99.242187v89.890625h-99.242187zm0 0" fill="#efc36a"/><path d="m267.257812 241.785156h-99.242187c-2.207031 0-4-1.792968-4-4v-89.890625c0-2.207031 1.792969-4 4-4h99.230469c2.210937 0 4 1.792969 4 4v89.882813c.011718 2.214844-1.78125 4.007812-3.988282 4.007812zm-95.242187-8h91.230469v-81.890625h-91.230469zm0 0" fill="#63312d"/><path d="m141.136719 147.894531h99.238281v89.890625h-99.238281zm0 0" fill="#f9dd9d"/><path d="m157.136719 163.894531h83.238281v-16h-99.238281v89.890625h16zm0 0" fill="#ffeecf"/><path d="m240.367188 241.785156h-99.230469c-2.207031 0-4-1.792968-4-4v-89.890625c0-2.207031 1.792969-4 4-4h99.230469c2.207031 0 4 1.792969 4 4v89.882813c0 2.214844-1.78125 4.007812-4 4.007812zm-95.230469-8h91.230469v-81.890625h-91.230469zm0 0" fill="#63312d"/><path d="m179.695312 147.894531h22.121094v29.960938h-22.121094zm0 0" fill="#f8f3f3"/><path d="m201.816406 181.855469h-22.128906c-2.207031 0-4-1.792969-4-4v-29.960938c0-2.207031 1.792969-4 4-4h22.128906c2.207032 0 4 1.792969 4 4v29.960938c0 2.214843-1.792968 4-4 4zm-18.128906-8h14.128906v-21.960938h-14.128906zm0 0" fill="#63312d"/><path d="m65.015625 303.894531h99.242187v89.890625h-99.242187zm0 0" fill="#efc36a"/><path d="m164.257812 397.785156h-99.242187c-2.207031 0-4-1.792968-4-4v-89.890625c0-2.207031 1.792969-4 4-4h99.242187c2.207032 0 4 1.792969 4 4v89.882813c0 2.214844-1.792968 4.007812-4 4.007812zm-95.242187-8h91.242187v-81.890625h-91.242187zm0 0" fill="#63312d"/><path d="m38.136719 303.894531h99.238281v89.890625h-99.238281zm0 0" fill="#f9dd9d"/><path d="m54.136719 319.894531h83.238281v-16h-99.238281v89.890625h16zm0 0" fill="#ffeecf"/><path d="m137.367188 397.785156h-99.230469c-2.207031 0-4-1.792968-4-4v-89.890625c0-2.207031 1.792969-4 4-4h99.230469c2.207031 0 4 1.792969 4 4v89.882813c0 2.214844-1.78125 4.007812-4 4.007812zm-95.230469-8h91.230469v-81.890625h-91.230469zm0 0" fill="#63312d"/><path d="m76.695312 303.894531h22.121094v29.960938h-22.121094zm0 0" fill="#f8f3f3"/><path d="m98.816406 337.855469h-22.128906c-2.207031 0-4-1.792969-4-4v-29.960938c0-2.207031 1.792969-4 4-4h22.128906c2.207032 0 4 1.792969 4 4v29.960938c0 2.214843-1.792968 4-4 4zm-18.128906-8h14.128906v-21.960938h-14.128906zm0 0" fill="#63312d"/><path d="m210.519531 4h99.242188v77.777344h-99.242188zm0 0" fill="#db785a"/><path d="m309.753906 85.785156h-99.234375c-2.207031 0-4-1.792968-4-4v-77.785156c0-2.207031 1.792969-4 4-4h99.234375c2.207032 0 4 1.792969 4 4v77.777344c0 2.214844-1.785156 4.007812-4 4.007812zm-95.234375-8h91.234375v-69.785156h-91.234375zm0 0" fill="#63312d"/><path d="m183.640625 4h99.238281v77.777344h-99.238281zm0 0" fill="#f9a287"/><path d="m199.632812 20h83.238282v-16h-99.238282v77.785156h16zm0 0" fill="#ffc8bb"/><path d="m282.871094 85.785156h-99.230469c-2.207031 0-4-1.792968-4-4v-77.785156c0-2.207031 1.792969-4 4-4h99.230469c2.207031 0 4 1.792969 4 4v77.777344c0 2.214844-1.792969 4.007812-4 4.007812zm-95.230469-8h91.230469v-69.785156h-91.230469zm0 0" fill="#63312d"/><path d="m222.191406 4h22.121094v28.800781h-22.121094zm0 0" fill="#f8f3f3"/><path d="m244.3125 36.800781h-22.128906c-2.207032 0-4-1.792969-4-4v-28.800781c0-2.207031 1.792968-4 4-4h22.128906c2.207031 0 4 1.792969 4 4v28.800781c0 2.214844-1.785156 4-4 4zm-18.121094-8h14.128906v-20.800781h-14.128906zm0 0" fill="#63312d"/></svg>